<svg width="22" height="22" viewBox="0 0 22 22" fill="none" xmlns="http://www.w3.org/2000/svg">
<path d="M9.70724 4.21267C10.0284 3.22436 11.4266 3.22436 11.7477 4.21267L12.895 7.74387C13.0387 8.18586 13.4505 8.48511 13.9153 8.48511H17.6282C18.6674 8.48511 19.0994 9.81488 18.2587 10.4257L15.2549 12.6081C14.8789 12.8813 14.7216 13.3654 14.8652 13.8074L16.0126 17.3386C16.3337 18.327 15.2025 19.1488 14.3618 18.538L11.358 16.3556C10.982 16.0824 10.4729 16.0824 10.0969 16.3556L7.09311 18.538C6.2524 19.1488 5.12123 18.327 5.44236 17.3386L6.58971 13.8074C6.73332 13.3654 6.576 12.8813 6.20002 12.6081L3.1962 10.4257C2.35549 9.81488 2.78756 8.48511 3.82674 8.48511H7.53966C8.00439 8.48511 8.41627 8.18586 8.55988 7.74387L9.70724 4.21267Z" fill="url(#paint0_linear_9_1499)"/>
<defs>
<linearGradient id="paint0_linear_9_1499" x1="2.75195" y1="3.47144" x2="20.604" y2="6.16962" gradientUnits="userSpaceOnUse">
<stop stop-color="#B6ABE0"/>
<stop offset="1" stop-color="#7F60F9"/>
</linearGradient>
</defs>
</svg>
